REM DIRINDEX 1\5,1\2\6,1\2\7,1\3\8,1\3\9,1\4\10,1\4\11,1\4\12
REM DIRNAME cjc026,folder01,folder02,folder03,folder04,folder05,folder06,folder07,folder08,folder09,folder10,folder11
TITLE ""
FILE "EJE_DB3000_5th_3B_24.mp3" MP3
  TRACK 01 AUDIO
    TITLE "0:"
    INDEX 01 00:00:00
  TRACK 02 AUDIO
    TITLE "10:cjc026_09084"
    INDEX 01 00:00:10
  TRACK 03 AUDIO
    TITLE "0:"
    INDEX 01 00:01:41
  TRACK 04 AUDIO
    TITLE "11:cjc026_09085"
    INDEX 01 00:02:03
  TRACK 05 AUDIO
    TITLE "0:"
    INDEX 01 00:03:39
  TRACK 06 AUDIO
    TITLE "12:cjc026_09086"
    INDEX 01 00:04:02
  TRACK 07 AUDIO
    TITLE "0:"
    INDEX 01 00:05:32
  TRACK 08 AUDIO
    TITLE "10:cjc026_09087"
    INDEX 01 00:05:70
  TRACK 09 AUDIO
    TITLE "0:"
    INDEX 01 00:07:25
  TRACK 10 AUDIO
    TITLE "11:cjc026_09088"
    INDEX 01 00:07:63
  TRACK 11 AUDIO
    TITLE "0:"
    INDEX 01 00:09:08
  TRACK 12 AUDIO
    TITLE "12:cjc026_09089"
    INDEX 01 00:09:45
  TRACK 13 AUDIO
    TITLE "0:"
    INDEX 01 00:11:01
  TRACK 14 AUDIO
    TITLE "10:cjc026_09090"
    INDEX 01 00:11:41
  TRACK 15 AUDIO
    TITLE "0:"
    INDEX 01 00:13:15
  TRACK 16 AUDIO
    TITLE "11:cjc026_09091"
    INDEX 01 00:13:51
  TRACK 17 AUDIO
    TITLE "0:"
    INDEX 01 00:15:09
  TRACK 18 AUDIO
    TITLE "12:cjc026_09092"
    INDEX 01 00:15:46
  TRACK 19 AUDIO
    TITLE "0:"
    INDEX 01 00:17:21
  TRACK 20 AUDIO
    TITLE "10:cjc026_09093"
    INDEX 01 00:17:56
  TRACK 21 AUDIO
    TITLE "0:"
    INDEX 01 00:19:11
  TRACK 22 AUDIO
    TITLE "11:cjc026_09094"
    INDEX 01 00:19:49
  TRACK 23 AUDIO
    TITLE "0:"
    INDEX 01 00:21:15
  TRACK 24 AUDIO
    TITLE "12:cjc026_09095"
    INDEX 01 00:21:50
  TRACK 25 AUDIO
    TITLE "0:"
    INDEX 01 00:23:08
  TRACK 26 AUDIO
    TITLE "10:cjc026_09096"
    INDEX 01 00:23:43
  TRACK 27 AUDIO
    TITLE "0:"
    INDEX 01 00:25:01
  TRACK 28 AUDIO
    TITLE "11:cjc026_09097"
    INDEX 01 00:25:36
  TRACK 29 AUDIO
    TITLE "0:"
    INDEX 01 00:27:02
  TRACK 30 AUDIO
    TITLE "12:cjc026_09098"
    INDEX 01 00:27:37
  TRACK 31 AUDIO
    TITLE "0:"
    INDEX 01 00:28:68
  TRACK 32 AUDIO
    TITLE "10:cjc026_09099"
    INDEX 01 00:29:28
  TRACK 33 AUDIO
    TITLE "0:"
    INDEX 01 00:30:63
  TRACK 34 AUDIO
    TITLE "11:cjc026_09100"
    INDEX 01 00:31:24
  TRACK 35 AUDIO
    TITLE "0:"
    INDEX 01 00:33:06
  TRACK 36 AUDIO
    TITLE "12:cjc026_09101"
    INDEX 01 00:33:41
  TRACK 37 AUDIO
    TITLE "0:"
    INDEX 01 00:34:74
  TRACK 38 AUDIO
    TITLE "10:cjc026_09102"
    INDEX 01 00:35:37
  TRACK 39 AUDIO
    TITLE "0:"
    INDEX 01 00:36:67
  TRACK 40 AUDIO
    TITLE "11:cjc026_09103"
    INDEX 01 00:37:30
  TRACK 41 AUDIO
    TITLE "0:"
    INDEX 01 00:38:57
  TRACK 42 AUDIO
    TITLE "12:cjc026_09104"
    INDEX 01 00:39:18
  TRACK 43 AUDIO
    TITLE "0:"
    INDEX 01 00:40:48
  TRACK 44 AUDIO
    TITLE "10:cjc026_09105"
    INDEX 01 00:41:11
  TRACK 45 AUDIO
    TITLE "0:"
    INDEX 01 00:42:46
  TRACK 46 AUDIO
    TITLE "11:cjc026_09106"
    INDEX 01 00:43:06
  TRACK 47 AUDIO
    TITLE "0:"
    INDEX 01 00:44:34
  TRACK 48 AUDIO
    TITLE "12:cjc026_09107"
    INDEX 01 00:44:72
  TRACK 49 AUDIO
    TITLE "0:"
    INDEX 01 00:46:30
  TRACK 50 AUDIO
    TITLE "10:cjc026_09108"
    INDEX 01 00:46:68
  TRACK 51 AUDIO
    TITLE "0:"
    INDEX 01 00:48:15
  TRACK 52 AUDIO
    TITLE "11:cjc026_09109"
    INDEX 01 00:48:50
  TRACK 53 AUDIO
    TITLE "0:"
    INDEX 01 00:50:00
  TRACK 54 AUDIO
    TITLE "12:cjc026_09110"
    INDEX 01 00:50:35
  TRACK 55 AUDIO
    TITLE "0:"
    INDEX 01 00:51:60
  TRACK 56 AUDIO
    TITLE "10:cjc026_09111"
    INDEX 01 00:52:23
  TRACK 57 AUDIO
    TITLE "0:"
    INDEX 01 00:54:00
  TRACK 58 AUDIO
    TITLE "11:cjc026_09112"
    INDEX 01 00:54:35
  TRACK 59 AUDIO
    TITLE "0:"
    INDEX 01 00:55:62
  TRACK 60 AUDIO
    TITLE "12:cjc026_09113"
    INDEX 01 00:56:28
  TRACK 61 AUDIO
    TITLE "0:"
    INDEX 01 00:58:02
  TRACK 62 AUDIO
    TITLE "10:cjc026_09114"
    INDEX 01 00:58:40
  TRACK 63 AUDIO
    TITLE "0:"
    INDEX 01 00:59:73
  TRACK 64 AUDIO
    TITLE "11:cjc026_09115"
    INDEX 01 01:00:33
  TRACK 65 AUDIO
    TITLE "0:"
    INDEX 01 01:02:23
  TRACK 66 AUDIO
    TITLE "12:cjc026_09116"
    INDEX 01 01:02:61
  TRACK 67 AUDIO
    TITLE "0:"
    INDEX 01 01:04:16
  TRACK 68 AUDIO
    TITLE "10:cjc026_09117"
    INDEX 01 01:04:51
  TRACK 69 AUDIO
    TITLE "0:"
    INDEX 01 01:06:01
  TRACK 70 AUDIO
    TITLE "11:cjc026_09118"
    INDEX 01 01:06:36
  TRACK 71 AUDIO
    TITLE "0:"
    INDEX 01 01:07:72
  TRACK 72 AUDIO
    TITLE "12:cjc026_09119"
    INDEX 01 01:08:32
  TRACK 73 AUDIO
    TITLE "0:"
    INDEX 01 01:09:57
  TRACK 74 AUDIO
    TITLE "10:cjc026_09120"
    INDEX 01 01:10:15
  TRACK 75 AUDIO
    TITLE "0:"
    INDEX 01 01:11:61
  TRACK 76 AUDIO
    TITLE "11:cjc026_09121"
    INDEX 01 01:12:24
  TRACK 77 AUDIO
    TITLE "0:"
    INDEX 01 01:14:03
  TRACK 78 AUDIO
    TITLE "12:cjc026_09122"
    INDEX 01 01:14:39
  TRACK 79 AUDIO
    TITLE "0:"
    INDEX 01 01:16:13
  TRACK 80 AUDIO
    TITLE "10:cjc026_09123"
    INDEX 01 01:16:48
  TRACK 81 AUDIO
    TITLE "0:"
    INDEX 01 01:18:25
  TRACK 82 AUDIO
    TITLE "11:cjc026_09124"
    INDEX 01 01:18:63
  TRACK 83 AUDIO
    TITLE "0:"
    INDEX 01 01:20:61
  TRACK 84 AUDIO
    TITLE "12:cjc026_09125"
    INDEX 01 01:21:21
  TRACK 85 AUDIO
    TITLE "0:"
    INDEX 01 01:22:73
